<?xml version="1.0" encoding="UTF-8" standalone="no"?>
<!DOCTYPE svg PUBLIC "-//W3C//DTD SVG 1.1//EN"
 "http://www.w3.org/Graphics/SVG/1.1/DTD/svg11.dtd">
<!-- Generated by graphviz version 2.38.0 (20140413.2041)
 -->
<!-- Title: g Pages: 1 -->
<svg width="252pt" height="207pt"
 viewBox="0.00 0.00 252.00 206.83" xmlns="http://www.w3.org/2000/svg" xmlns:xlink="http://www.w3.org/1999/xlink">
<g id="graph0" class="graph" transform="scale(0.746667 0.746667) rotate(0) translate(4 273)">
<title>g</title>
<polygon fill="white" stroke="none" points="-4,4 -4,-273 333.5,-273 333.5,4 -4,4"/>
<!-- cObject -->
<g id="node1" class="node"><title>cObject</title>
<polygon fill="none" stroke="black" points="209.5,-269 143.5,-269 143.5,-233 209.5,-233 209.5,-269"/>
<text text-anchor="middle" x="176.5" y="-247.3" font-family="Arial" font-size="14.00">cObject</text>
</g>
<!-- cNamedObject -->
<g id="node2" class="node"><title>cNamedObject</title>
<polygon fill="none" stroke="black" points="232.5,-196 120.5,-196 120.5,-160 232.5,-160 232.5,-196"/>
<text text-anchor="middle" x="176.5" y="-174.3" font-family="Arial" font-size="14.00">cNamedObject</text>
</g>
<!-- cObject&#45;&gt;cNamedObject -->
<g id="edge1" class="edge"><title>cObject&#45;&gt;cNamedObject</title>
<path fill="none" stroke="black" d="M176.5,-222.753C176.5,-213.765 176.5,-204.029 176.5,-196.029"/>
<polygon fill="black" stroke="black" points="173,-222.813 176.5,-232.813 180,-222.813 173,-222.813"/>
</g>
<!-- cOwnedObject -->
<g id="node3" class="node"><title>cOwnedObject</title>
<polygon fill="none" stroke="black" points="232,-123 121,-123 121,-87 232,-87 232,-123"/>
<text text-anchor="middle" x="176.5" y="-101.3" font-family="Arial" font-size="14.00">cOwnedObject</text>
</g>
<!-- cNamedObject&#45;&gt;cOwnedObject -->
<g id="edge2" class="edge"><title>cNamedObject&#45;&gt;cOwnedObject</title>
<path fill="none" stroke="black" d="M176.5,-149.753C176.5,-140.765 176.5,-131.029 176.5,-123.029"/>
<polygon fill="black" stroke="black" points="173,-149.813 176.5,-159.813 180,-149.813 173,-149.813"/>
</g>
<!-- cModule -->
<g id="node4" class="node"><title>cModule</title>
<polygon fill="none" stroke="black" points="71,-36 0,-36 0,-0 71,-0 71,-36"/>
<text text-anchor="middle" x="35.5" y="-14.3" font-family="Arial" font-size="14.00">cModule</text>
</g>
<!-- cOwnedObject&#45;&gt;cModule -->
<g id="edge3" class="edge"><title>cOwnedObject&#45;&gt;cModule</title>
<path fill="none" stroke="black" d="M139.276,-81.5599C115.696,-67.3452 85.6718,-49.2454 63.991,-36.1754"/>
<polygon fill="black" stroke="black" points="137.595,-84.6336 147.967,-86.799 141.209,-78.6387 137.595,-84.6336"/>
<text text-anchor="middle" x="120.5" y="-57.8" font-family="Arial" font-size="14.00">...</text>
</g>
<!-- cMessage -->
<g id="node5" class="node"><title>cMessage</title>
<polygon fill="none" stroke="black" points="172,-36 89,-36 89,-0 172,-0 172,-36"/>
<text text-anchor="middle" x="130.5" y="-14.3" font-family="Arial" font-size="14.00">cMessage</text>
</g>
<!-- cOwnedObject&#45;&gt;cMessage -->
<g id="edge4" class="edge"><title>cOwnedObject&#45;&gt;cMessage</title>
<path fill="none" stroke="black" d="M162.383,-77.9141C155.043,-64.3505 146.276,-48.1515 139.795,-36.1754"/>
<polygon fill="black" stroke="black" points="159.354,-79.6701 167.191,-86.799 165.51,-76.3384 159.354,-79.6701"/>
<text text-anchor="middle" x="162.5" y="-57.8" font-family="Arial" font-size="14.00">...</text>
</g>
<!-- cQueue -->
<g id="node6" class="node"><title>cQueue</title>
<polygon fill="none" stroke="black" points="257,-36 190,-36 190,-0 257,-0 257,-36"/>
<text text-anchor="middle" x="223.5" y="-14.3" font-family="Arial" font-size="14.00">cQueue</text>
</g>
<!-- cOwnedObject&#45;&gt;cQueue -->
<g id="edge5" class="edge"><title>cOwnedObject&#45;&gt;cQueue</title>
<path fill="none" stroke="black" d="M190.924,-77.9141C198.424,-64.3505 207.381,-48.1515 214.003,-36.1754"/>
<polygon fill="black" stroke="black" points="187.787,-76.3541 186.011,-86.799 193.913,-79.7413 187.787,-76.3541"/>
</g>
<!-- others -->
<g id="node7" class="node"><title>others</title>
<polygon fill="none" stroke="black" points="329.5,-36 275.5,-36 275.5,-0 329.5,-0 329.5,-36"/>
<text text-anchor="middle" x="302.5" y="-14.3" font-family="Arial" font-size="14.00">...</text>
</g>
<!-- cOwnedObject&#45;&gt;others -->
<g id="edge6" class="edge"><title>cOwnedObject&#45;&gt;others</title>
<path fill="none" stroke="black" d="M210.322,-81.1833C231.308,-67.0266 257.836,-49.1303 277.04,-36.1754"/>
<polygon fill="black" stroke="black" points="208.331,-78.305 201.998,-86.799 212.245,-84.108 208.331,-78.305"/>
</g>
</g>
</svg>
