<?xml version="1.0" encoding="UTF-8" standalone="no"?>
<!DOCTYPE svg PUBLIC "-//W3C//DTD SVG 1.1//EN"
 "http://www.w3.org/Graphics/SVG/1.1/DTD/svg11.dtd">
<!-- Generated by graphviz version 2.38.0 (20140413.2041)
 -->
<!-- Title: g Pages: 1 -->
<svg width="396pt" height="209pt"
 viewBox="0.00 0.00 396.00 208.94" xmlns="http://www.w3.org/2000/svg" xmlns:xlink="http://www.w3.org/1999/xlink">
<g id="graph0" class="graph" transform="scale(0.754286 0.754286) rotate(0) translate(4 273)">
<title>g</title>
<polygon fill="white" stroke="none" points="-4,4 -4,-273 521,-273 521,4 -4,4"/>
<!-- cObject -->
<g id="node1" class="node"><title>cObject</title>
<polygon fill="none" stroke="black" points="236.5,-269 170.5,-269 170.5,-233 236.5,-233 236.5,-269"/>
<text text-anchor="middle" x="203.5" y="-247.3" font-family="Arial" font-size="14.00">cObject</text>
</g>
<!-- cComponent -->
<g id="node2" class="node"><title>cComponent</title>
<polygon fill="none" stroke="black" points="252.5,-182 154.5,-182 154.5,-146 252.5,-146 252.5,-182"/>
<text text-anchor="middle" x="203.5" y="-160.3" font-family="Arial" font-size="14.00">cComponent</text>
</g>
<!-- cObject&#45;&gt;cComponent -->
<g id="edge1" class="edge"><title>cObject&#45;&gt;cComponent</title>
<path fill="none" stroke="black" d="M203.5,-222.734C203.5,-209.419 203.5,-193.806 203.5,-182.175"/>
<polygon fill="black" stroke="black" points="200,-222.799 203.5,-232.799 207,-222.799 200,-222.799"/>
<text text-anchor="middle" x="209.5" y="-203.8" font-family="Arial" font-size="14.00">...</text>
</g>
<!-- cModule -->
<g id="node3" class="node"><title>cModule</title>
<polygon fill="none" stroke="black" points="134,-109 63,-109 63,-73 134,-73 134,-109"/>
<text text-anchor="middle" x="98.5" y="-87.3" font-family="Arial" font-size="14.00">cModule</text>
</g>
<!-- cComponent&#45;&gt;cModule -->
<g id="edge2" class="edge"><title>cComponent&#45;&gt;cModule</title>
<path fill="none" stroke="black" d="M169.868,-140.258C154.925,-130.154 137.63,-118.46 123.809,-109.114"/>
<polygon fill="black" stroke="black" points="168.105,-143.292 178.35,-145.994 172.026,-137.493 168.105,-143.292"/>
</g>
<!-- cChannel -->
<g id="node4" class="node"><title>cChannel</title>
<polygon fill="none" stroke="black" points="310.5,-109 234.5,-109 234.5,-73 310.5,-73 310.5,-109"/>
<text text-anchor="middle" x="272.5" y="-87.3" font-family="Arial" font-size="14.00">cChannel</text>
</g>
<!-- cComponent&#45;&gt;cChannel -->
<g id="edge3" class="edge"><title>cComponent&#45;&gt;cChannel</title>
<path fill="none" stroke="black" d="M227.439,-138.367C236.847,-128.686 247.415,-117.812 255.951,-109.029"/>
<polygon fill="black" stroke="black" points="224.662,-136.202 220.203,-145.813 229.682,-141.081 224.662,-136.202"/>
</g>
<!-- cSimpleModule -->
<g id="node5" class="node"><title>cSimpleModule</title>
<polygon fill="none" stroke="black" points="115,-36 7.10543e-15,-36 7.10543e-15,-0 115,-0 115,-36"/>
<text text-anchor="middle" x="57.5" y="-14.3" font-family="Arial" font-size="14.00">cSimpleModule</text>
</g>
<!-- cModule&#45;&gt;cSimpleModule -->
<g id="edge4" class="edge"><title>cModule&#45;&gt;cSimpleModule</title>
<path fill="none" stroke="black" d="M83.4405,-63.9213C78.0664,-54.6149 72.1545,-44.3773 67.3336,-36.0288"/>
<polygon fill="black" stroke="black" points="80.5433,-65.9033 88.575,-72.8129 86.6052,-62.4028 80.5433,-65.9033"/>
</g>
<!-- cIdealChannel -->
<g id="node6" class="node"><title>cIdealChannel</title>
<polygon fill="none" stroke="black" points="240,-36 133,-36 133,-0 240,-0 240,-36"/>
<text text-anchor="middle" x="186.5" y="-14.3" font-family="Arial" font-size="14.00">cIdealChannel</text>
</g>
<!-- cChannel&#45;&gt;cIdealChannel -->
<g id="edge5" class="edge"><title>cChannel&#45;&gt;cIdealChannel</title>
<path fill="none" stroke="black" d="M243.704,-66.2269C231.722,-56.3343 218.081,-45.073 207.126,-36.0288"/>
<polygon fill="black" stroke="black" points="241.742,-69.1454 251.682,-72.8129 246.199,-63.7473 241.742,-69.1454"/>
</g>
<!-- cDelayChannel -->
<g id="node7" class="node"><title>cDelayChannel</title>
<polygon fill="none" stroke="black" points="369.5,-36 257.5,-36 257.5,-0 369.5,-0 369.5,-36"/>
<text text-anchor="middle" x="313.5" y="-14.3" font-family="Arial" font-size="14.00">cDelayChannel</text>
</g>
<!-- cChannel&#45;&gt;cDelayChannel -->
<g id="edge6" class="edge"><title>cChannel&#45;&gt;cDelayChannel</title>
<path fill="none" stroke="black" d="M287.56,-63.9213C292.934,-54.6149 298.845,-44.3773 303.666,-36.0288"/>
<polygon fill="black" stroke="black" points="284.395,-62.4028 282.425,-72.8129 290.457,-65.9033 284.395,-62.4028"/>
</g>
<!-- cDatarateChannel -->
<g id="node8" class="node"><title>cDatarateChannel</title>
<polygon fill="none" stroke="black" points="517,-36 388,-36 388,-0 517,-0 517,-36"/>
<text text-anchor="middle" x="452.5" y="-14.3" font-family="Arial" font-size="14.00">cDatarateChannel</text>
</g>
<!-- cChannel&#45;&gt;cDatarateChannel -->
<g id="edge7" class="edge"><title>cChannel&#45;&gt;cDatarateChannel</title>
<path fill="none" stroke="black" d="M320.153,-71.2036C347.837,-60.2837 382.446,-46.6325 409.328,-36.0288"/>
<polygon fill="black" stroke="black" points="318.692,-68.0175 310.673,-74.9427 321.26,-74.5292 318.692,-68.0175"/>
</g>
</g>
</svg>
