<?xml version="1.0" encoding="UTF-8" standalone="no"?>
<!DOCTYPE svg PUBLIC "-//W3C//DTD SVG 1.1//EN"
 "http://www.w3.org/Graphics/SVG/1.1/DTD/svg11.dtd">
<!-- Generated by graphviz version 2.38.0 (20140413.2041)
 -->
<!-- Title: g Pages: 1 -->
<svg width="562pt" height="318pt"
 viewBox="0.00 0.00 562.00 318.16" xmlns="http://www.w3.org/2000/svg" xmlns:xlink="http://www.w3.org/1999/xlink">
<g id="graph0" class="graph" transform="scale(0.746844 0.746844) rotate(0) translate(4 422)">
<title>g</title>
<polygon fill="white" stroke="none" points="-4,4 -4,-422 748.5,-422 748.5,4 -4,4"/>
<!-- cIListener -->
<g id="node1" class="node"><title>cIListener</title>
<polygon fill="none" stroke="black" points="483.5,-418 403.5,-418 403.5,-382 483.5,-382 483.5,-418"/>
<text text-anchor="middle" x="443.5" y="-396.3" font-family="Arial" font-size="14.00">cIListener</text>
</g>
<!-- cResultListener -->
<g id="node2" class="node"><title>cResultListener</title>
<polygon fill="none" stroke="black" points="501.5,-346 385.5,-346 385.5,-310 501.5,-310 501.5,-346"/>
<text text-anchor="middle" x="443.5" y="-324.3" font-family="Arial" font-size="14.00">cResultListener</text>
</g>
<!-- cIListener&#45;&gt;cResultListener -->
<g id="edge1" class="edge"><title>cIListener&#45;&gt;cResultListener</title>
<path fill="none" stroke="black" d="M443.5,-371.665C443.5,-363.054 443.5,-353.791 443.5,-346.104"/>
<polygon fill="black" stroke="black" points="440,-371.697 443.5,-381.697 447,-371.697 440,-371.697"/>
</g>
<!-- cResultFilter -->
<g id="node3" class="node"><title>cResultFilter</title>
<polygon fill="none" stroke="black" points="350.5,-274 254.5,-274 254.5,-238 350.5,-238 350.5,-274"/>
<text text-anchor="middle" x="302.5" y="-252.3" font-family="Arial" font-size="14.00">cResultFilter</text>
</g>
<!-- cResultListener&#45;&gt;cResultFilter -->
<g id="edge2" class="edge"><title>cResultListener&#45;&gt;cResultFilter</title>
<path fill="none" stroke="black" d="M399.997,-305.403C379.789,-295.371 356.095,-283.607 337.125,-274.19"/>
<polygon fill="black" stroke="black" points="398.494,-308.564 409.008,-309.876 401.607,-302.294 398.494,-308.564"/>
</g>
<!-- cResultRecorder -->
<g id="node4" class="node"><title>cResultRecorder</title>
<polygon fill="none" stroke="black" points="582,-274 457,-274 457,-238 582,-238 582,-274"/>
<text text-anchor="middle" x="519.5" y="-252.3" font-family="Arial" font-size="14.00">cResultRecorder</text>
</g>
<!-- cResultListener&#45;&gt;cResultRecorder -->
<g id="edge3" class="edge"><title>cResultListener&#45;&gt;cResultRecorder</title>
<path fill="none" stroke="black" d="M469.823,-302.755C480.071,-293.316 491.575,-282.72 500.93,-274.104"/>
<polygon fill="black" stroke="black" points="467.271,-300.347 462.287,-309.697 472.013,-305.496 467.271,-300.347"/>
</g>
<!-- cNumericResultFilter -->
<g id="node5" class="node"><title>cNumericResultFilter</title>
<polygon fill="none" stroke="black" points="149,-201 1.42109e-14,-201 1.42109e-14,-165 149,-165 149,-201"/>
<text text-anchor="middle" x="74.5" y="-179.3" font-family="Arial" font-size="14.00">cNumericResultFilter</text>
</g>
<!-- cResultFilter&#45;&gt;cNumericResultFilter -->
<g id="edge4" class="edge"><title>cResultFilter&#45;&gt;cNumericResultFilter</title>
<path fill="none" stroke="black" d="M244.705,-237.002C209.275,-225.969 164.184,-211.928 129.316,-201.07"/>
<polygon fill="black" stroke="black" points="243.837,-240.398 254.426,-240.029 245.919,-233.714 243.837,-240.398"/>
</g>
<!-- cObjectResultFilter -->
<g id="node6" class="node"><title>cObjectResultFilter</title>
<polygon fill="none" stroke="black" points="305.5,-201 167.5,-201 167.5,-165 305.5,-165 305.5,-201"/>
<text text-anchor="middle" x="236.5" y="-179.3" font-family="Arial" font-size="14.00">cObjectResultFilter</text>
</g>
<!-- cResultFilter&#45;&gt;cObjectResultFilter -->
<g id="edge5" class="edge"><title>cResultFilter&#45;&gt;cObjectResultFilter</title>
<path fill="none" stroke="black" d="M279.602,-230.367C270.603,-220.686 260.494,-209.812 252.33,-201.029"/>
<polygon fill="black" stroke="black" points="277.151,-232.872 286.523,-237.813 282.278,-228.106 277.151,-232.872"/>
</g>
<!-- CountFilter,\n... -->
<g id="node8" class="node"><title>CountFilter,\n...</title>
<polygon fill="none" stroke="black" points="413,-202 324,-202 324,-164 413,-164 413,-202"/>
<text text-anchor="middle" x="368.5" y="-186.8" font-family="Arial" font-size="14.00">CountFilter,</text>
<text text-anchor="middle" x="368.5" y="-171.8" font-family="Arial" font-size="14.00">...</text>
</g>
<!-- cResultFilter&#45;&gt;CountFilter,\n... -->
<g id="edge7" class="edge"><title>cResultFilter&#45;&gt;CountFilter,\n...</title>
<path fill="none" stroke="black" d="M325.445,-230.317C334.097,-221.009 343.768,-210.606 351.749,-202.02"/>
<polygon fill="black" stroke="black" points="322.722,-228.106 318.477,-237.813 327.849,-232.872 322.722,-228.106"/>
</g>
<!-- cNumericResultRecorder -->
<g id="node7" class="node"><title>cNumericResultRecorder</title>
<polygon fill="none" stroke="black" points="608,-201 431,-201 431,-165 608,-165 608,-201"/>
<text text-anchor="middle" x="519.5" y="-179.3" font-family="Arial" font-size="14.00">cNumericResultRecorder</text>
</g>
<!-- cResultRecorder&#45;&gt;cNumericResultRecorder -->
<g id="edge6" class="edge"><title>cResultRecorder&#45;&gt;cNumericResultRecorder</title>
<path fill="none" stroke="black" d="M519.5,-227.753C519.5,-218.765 519.5,-209.029 519.5,-201.029"/>
<polygon fill="black" stroke="black" points="516,-227.813 519.5,-237.813 523,-227.813 516,-227.813"/>
</g>
<!-- CountRecorder,\n... -->
<g id="node11" class="node"><title>CountRecorder,\n...</title>
<polygon fill="none" stroke="black" points="744.5,-202 626.5,-202 626.5,-164 744.5,-164 744.5,-202"/>
<text text-anchor="middle" x="685.5" y="-186.8" font-family="Arial" font-size="14.00">CountRecorder,</text>
<text text-anchor="middle" x="685.5" y="-171.8" font-family="Arial" font-size="14.00">...</text>
</g>
<!-- cResultRecorder&#45;&gt;CountRecorder,\n... -->
<g id="edge10" class="edge"><title>cResultRecorder&#45;&gt;CountRecorder,\n...</title>
<path fill="none" stroke="black" d="M568.762,-233.93C592.418,-223.812 620.48,-211.81 643.162,-202.109"/>
<polygon fill="black" stroke="black" points="567.079,-230.843 559.261,-237.994 569.832,-237.279 567.079,-230.843"/>
</g>
<!-- SumFilter,\nMinFilter,\nMaxFilter,\nTimeAverageFilter,\n... -->
<g id="node9" class="node"><title>SumFilter,\nMinFilter,\nMaxFilter,\nTimeAverageFilter,\n...</title>
<polygon fill="none" stroke="black" points="143,-105.5 6,-105.5 6,-22.5 143,-22.5 143,-105.5"/>
<text text-anchor="middle" x="74.5" y="-90.3" font-family="Arial" font-size="14.00">SumFilter,</text>
<text text-anchor="middle" x="74.5" y="-75.3" font-family="Arial" font-size="14.00">MinFilter,</text>
<text text-anchor="middle" x="74.5" y="-60.3" font-family="Arial" font-size="14.00">MaxFilter,</text>
<text text-anchor="middle" x="74.5" y="-45.3" font-family="Arial" font-size="14.00">TimeAverageFilter,</text>
<text text-anchor="middle" x="74.5" y="-30.3" font-family="Arial" font-size="14.00">...</text>
</g>
<!-- cNumericResultFilter&#45;&gt;SumFilter,\nMinFilter,\nMaxFilter,\nTimeAverageFilter,\n... -->
<g id="edge8" class="edge"><title>cNumericResultFilter&#45;&gt;SumFilter,\nMinFilter,\nMaxFilter,\nTimeAverageFilter,\n...</title>
<path fill="none" stroke="black" d="M74.5,-154.67C74.5,-140.133 74.5,-121.967 74.5,-105.795"/>
<polygon fill="black" stroke="black" points="71.0001,-154.987 74.5,-164.987 78.0001,-154.987 71.0001,-154.987"/>
</g>
<!-- PacketBitsFilter,\nPacketBytesFilter,\n... -->
<g id="node10" class="node"><title>PacketBitsFilter,\nPacketBytesFilter,\n...</title>
<polygon fill="none" stroke="black" points="302,-90.5 171,-90.5 171,-37.5 302,-37.5 302,-90.5"/>
<text text-anchor="middle" x="236.5" y="-75.3" font-family="Arial" font-size="14.00">PacketBitsFilter,</text>
<text text-anchor="middle" x="236.5" y="-60.3" font-family="Arial" font-size="14.00">PacketBytesFilter,</text>
<text text-anchor="middle" x="236.5" y="-45.3" font-family="Arial" font-size="14.00">...</text>
</g>
<!-- cObjectResultFilter&#45;&gt;PacketBitsFilter,\nPacketBytesFilter,\n... -->
<g id="edge9" class="edge"><title>cObjectResultFilter&#45;&gt;PacketBitsFilter,\nPacketBytesFilter,\n...</title>
<path fill="none" stroke="black" d="M236.5,-154.723C236.5,-135.394 236.5,-109.633 236.5,-90.6739"/>
<polygon fill="black" stroke="black" points="233,-154.987 236.5,-164.987 240,-154.987 233,-154.987"/>
</g>
<!-- VectorRecorder,\nLastValueRecorder,\nHistogramRecorder,\nSumRecorder,\nMinRecorder,\nMaxRecorder,\nTimeAverageRecorder,\n... -->
<g id="node12" class="node"><title>VectorRecorder,\nLastValueRecorder,\nHistogramRecorder,\nSumRecorder,\nMinRecorder,\nMaxRecorder,\nTimeAverageRecorder,\n...</title>
<polygon fill="none" stroke="black" points="602.5,-128 436.5,-128 436.5,-0 602.5,-0 602.5,-128"/>
<text text-anchor="middle" x="519.5" y="-112.8" font-family="Arial" font-size="14.00">VectorRecorder,</text>
<text text-anchor="middle" x="519.5" y="-97.8" font-family="Arial" font-size="14.00">LastValueRecorder,</text>
<text text-anchor="middle" x="519.5" y="-82.8" font-family="Arial" font-size="14.00">HistogramRecorder,</text>
<text text-anchor="middle" x="519.5" y="-67.8" font-family="Arial" font-size="14.00">SumRecorder,</text>
<text text-anchor="middle" x="519.5" y="-52.8" font-family="Arial" font-size="14.00">MinRecorder,</text>
<text text-anchor="middle" x="519.5" y="-37.8" font-family="Arial" font-size="14.00">MaxRecorder,</text>
<text text-anchor="middle" x="519.5" y="-22.8" font-family="Arial" font-size="14.00">TimeAverageRecorder,</text>
<text text-anchor="middle" x="519.5" y="-7.8" font-family="Arial" font-size="14.00">...</text>
</g>
<!-- cNumericResultRecorder&#45;&gt;VectorRecorder,\nLastValueRecorder,\nHistogramRecorder,\nSumRecorder,\nMinRecorder,\nMaxRecorder,\nTimeAverageRecorder,\n... -->
<g id="edge11" class="edge"><title>cNumericResultRecorder&#45;&gt;VectorRecorder,\nLastValueRecorder,\nHistogramRecorder,\nSumRecorder,\nMinRecorder,\nMaxRecorder,\nTimeAverageRecorder,\n...</title>
<path fill="none" stroke="black" d="M519.5,-154.782C519.5,-146.723 519.5,-137.54 519.5,-128.197"/>
<polygon fill="black" stroke="black" points="516,-154.987 519.5,-164.987 523,-154.987 516,-154.987"/>
</g>
</g>
</svg>
