<?xml version="1.0" encoding="UTF-8" standalone="no"?>
<!DOCTYPE svg PUBLIC "-//W3C//DTD SVG 1.1//EN"
 "http://www.w3.org/Graphics/SVG/1.1/DTD/svg11.dtd">
<!-- Generated by graphviz version 2.38.0 (20140413.2041)
 -->
<!-- Title: g Pages: 1 -->
<svg width="360pt" height="117pt"
 viewBox="0.00 0.00 360.00 116.73" xmlns="http://www.w3.org/2000/svg" xmlns:xlink="http://www.w3.org/1999/xlink">
<g id="graph0" class="graph" transform="scale(0.641381 0.641381) rotate(0) translate(4 178)">
<title>g</title>
<polygon fill="white" stroke="none" points="-4,4 -4,-178 557.289,-178 557.289,4 -4,4"/>
<!-- pkdrop -->
<g id="node1" class="node"><title>pkdrop</title>
<polygon fill="none" stroke="black" points="72,-112 0,-112 0,-62 72,-62 72,-112"/>
<text text-anchor="middle" x="36" y="-83.3" font-family="Arial" font-size="14.00">pkdrop</text>
</g>
<!-- packetBytes -->
<g id="node2" class="node"><title>packetBytes</title>
<ellipse fill="none" stroke="black" cx="158.126" cy="-87" rx="50.2531" ry="50.2531"/>
<text text-anchor="middle" x="158.126" y="-83.3" font-family="Arial" font-size="14.00">packetBytes</text>
</g>
<!-- pkdrop&#45;&gt;packetBytes -->
<g id="edge1" class="edge"><title>pkdrop&#45;&gt;packetBytes</title>
<path fill="none" stroke="black" d="M72.0684,-87C80.132,-87 88.927,-87 97.7038,-87"/>
<polygon fill="black" stroke="black" points="97.9537,-90.5001 107.954,-87 97.9536,-83.5001 97.9537,-90.5001"/>
</g>
<!-- expr1 -->
<g id="node3" class="node"><title>expr1</title>
<ellipse fill="none" stroke="black" cx="282.771" cy="-87" rx="38.5363" ry="38.5363"/>
<text text-anchor="middle" x="282.771" y="-83.3" font-family="Arial" font-size="14.00">f(x) = x*8</text>
</g>
<!-- packetBytes&#45;&gt;expr1 -->
<g id="edge2" class="edge"><title>packetBytes&#45;&gt;expr1</title>
<path fill="none" stroke="black" d="M208.304,-87C216.737,-87 225.49,-87 233.889,-87"/>
<polygon fill="black" stroke="black" points="233.913,-90.5001 243.913,-87 233.913,-83.5001 233.913,-90.5001"/>
</g>
<!-- sum -->
<g id="node4" class="node"><title>sum</title>
<ellipse fill="none" stroke="black" cx="397.289" cy="-134" rx="36" ry="36"/>
<text text-anchor="middle" x="397.289" y="-130.3" font-family="Arial" font-size="14.00">sum</text>
</g>
<!-- expr1&#45;&gt;sum -->
<g id="edge4" class="edge"><title>expr1&#45;&gt;sum</title>
<path fill="none" stroke="black" d="M318.756,-101.613C329.944,-106.287 342.45,-111.511 354.096,-116.375"/>
<polygon fill="black" stroke="black" points="353.052,-119.732 363.628,-120.357 355.75,-113.273 353.052,-119.732"/>
</g>
<!-- sumrec -->
<g id="node5" class="node"><title>sumrec</title>
<ellipse fill="none" stroke="black" cx="397.289" cy="-40" rx="36" ry="36"/>
<ellipse fill="none" stroke="black" cx="397.289" cy="-40" rx="40" ry="40"/>
<text text-anchor="middle" x="397.289" y="-36.3" font-family="Arial" font-size="14.00">sum</text>
</g>
<!-- expr1&#45;&gt;sumrec -->
<g id="edge3" class="edge"><title>expr1&#45;&gt;sumrec</title>
<path fill="none" stroke="black" d="M318.756,-72.3865C328.934,-68.1348 340.203,-63.4279 350.922,-58.9501"/>
<polygon fill="black" stroke="black" points="352.282,-62.1753 360.16,-55.0913 349.584,-55.7162 352.282,-62.1753"/>
</g>
<!-- vector -->
<g id="node6" class="node"><title>vector</title>
<ellipse fill="none" stroke="black" cx="513.289" cy="-134" rx="36" ry="36"/>
<ellipse fill="none" stroke="black" cx="513.289" cy="-134" rx="40" ry="40"/>
<text text-anchor="middle" x="513.289" y="-130.3" font-family="Arial" font-size="14.00">vector</text>
</g>
<!-- sum&#45;&gt;vector -->
<g id="edge5" class="edge"><title>sum&#45;&gt;vector</title>
<path fill="none" stroke="black" d="M433.423,-134C442.746,-134 452.988,-134 462.916,-134"/>
<polygon fill="black" stroke="black" points="463.097,-137.5 473.097,-134 463.097,-130.5 463.097,-137.5"/>
</g>
</g>
</svg>
