<?xml version="1.0" encoding="UTF-8" standalone="no"?>
<!DOCTYPE svg PUBLIC "-//W3C//DTD SVG 1.1//EN"
 "http://www.w3.org/Graphics/SVG/1.1/DTD/svg11.dtd">
<!-- Generated by graphviz version 2.38.0 (20140413.2041)
 -->
<!-- Title: g Pages: 1 -->
<svg width="360pt" height="337pt"
 viewBox="0.00 0.00 360.00 336.52" xmlns="http://www.w3.org/2000/svg" xmlns:xlink="http://www.w3.org/1999/xlink">
<g id="graph0" class="graph" transform="scale(0.681574 0.681574) rotate(0) translate(4 489.74)">
<title>g</title>
<polygon fill="white" stroke="none" points="-4,4 -4,-489.74 524.189,-489.74 524.189,4 -4,4"/>
<!-- cc -->
<g id="node1" class="node"><title>cc</title>
<ellipse fill="none" stroke="black" cx="63.6943" cy="-467.74" rx="63.8893" ry="18"/>
<text text-anchor="middle" x="63.6943" y="-464.04" font-family="Arial" font-size="14.00">C++ sources</text>
</g>
<!-- linking -->
<g id="node10" class="node"><title>linking</title>
<polygon fill="none" stroke="black" points="251.694,-252 101.694,-252 101.694,-216 251.694,-216 251.694,-252"/>
<text text-anchor="middle" x="176.694" y="-230.3" font-family="Arial" font-size="14.00">Compiling and linking</text>
</g>
<!-- cc&#45;&gt;linking -->
<g id="edge3" class="edge"><title>cc&#45;&gt;linking</title>
<path fill="none" stroke="black" d="M63.3424,-449.671C63.4486,-415.934 67.7474,-339.527 101.694,-288 109.67,-275.893 121.442,-265.701 133.308,-257.589"/>
<polygon fill="black" stroke="black" points="135.395,-260.408 141.911,-252.054 131.608,-254.521 135.395,-260.408"/>
</g>
<!-- m_cc -->
<g id="node2" class="node"><title>m_cc</title>
<ellipse fill="none" stroke="black" cx="176.694" cy="-314.87" rx="66.0889" ry="18"/>
<text text-anchor="middle" x="176.694" y="-311.17" font-family="Arial" font-size="14.00">*_m.cc/h files</text>
</g>
<!-- m_cc&#45;&gt;linking -->
<g id="edge4" class="edge"><title>m_cc&#45;&gt;linking</title>
<path fill="none" stroke="black" d="M176.694,-296.756C176.694,-286.731 176.694,-273.836 176.694,-262.425"/>
<polygon fill="black" stroke="black" points="180.194,-262.08 176.694,-252.08 173.194,-262.08 180.194,-262.08"/>
</g>
<!-- msg -->
<g id="node3" class="node"><title>msg</title>
<ellipse fill="none" stroke="black" cx="196.694" cy="-467.74" rx="51.1914" ry="18"/>
<text text-anchor="middle" x="196.694" y="-464.04" font-family="Arial" font-size="14.00">MSG files</text>
</g>
<!-- opp_msgc -->
<g id="node9" class="node"><title>opp_msgc</title>
<polygon fill="none" stroke="black" points="229.194,-413.74 144.194,-413.74 144.194,-377.74 229.194,-377.74 229.194,-413.74"/>
<text text-anchor="middle" x="186.694" y="-392.04" font-family="Arial" font-size="14.00">opp_msgc</text>
</g>
<!-- msg&#45;&gt;opp_msgc -->
<g id="edge1" class="edge"><title>msg&#45;&gt;opp_msgc</title>
<path fill="none" stroke="black" d="M194.222,-449.437C193.12,-441.723 191.796,-432.453 190.568,-423.853"/>
<polygon fill="black" stroke="black" points="194.017,-423.249 189.138,-413.844 187.087,-424.239 194.017,-423.249"/>
</g>
<!-- ned -->
<g id="node4" class="node"><title>ned</title>
<ellipse fill="none" stroke="black" cx="334.694" cy="-162" rx="50.0912" ry="18"/>
<text text-anchor="middle" x="334.694" y="-158.3" font-family="Arial" font-size="14.00">NED files</text>
</g>
<!-- running -->
<g id="node11" class="node"><title>running</title>
<polygon fill="none" stroke="black" points="368.694,-108 300.694,-108 300.694,-72 368.694,-72 368.694,-108"/>
<text text-anchor="middle" x="334.694" y="-86.3" font-family="Arial" font-size="14.00">Running</text>
</g>
<!-- ned&#45;&gt;running -->
<g id="edge8" class="edge"><title>ned&#45;&gt;running</title>
<path fill="none" stroke="black" d="M334.694,-143.697C334.694,-135.983 334.694,-126.712 334.694,-118.112"/>
<polygon fill="black" stroke="black" points="338.194,-118.104 334.694,-108.104 331.194,-118.104 338.194,-118.104"/>
</g>
<!-- ini -->
<g id="node5" class="node"><title>ini</title>
<ellipse fill="none" stroke="black" cx="461.694" cy="-162" rx="58.4896" ry="18"/>
<text text-anchor="middle" x="461.694" y="-158.3" font-family="Arial" font-size="14.00">omnetpp.ini</text>
</g>
<!-- ini&#45;&gt;running -->
<g id="edge9" class="edge"><title>ini&#45;&gt;running</title>
<path fill="none" stroke="black" d="M434.45,-145.983C417.084,-136.412 394.278,-123.841 374.855,-113.136"/>
<polygon fill="black" stroke="black" points="376.364,-109.971 365.917,-108.209 372.985,-116.102 376.364,-109.971"/>
</g>
<!-- libs -->
<g id="node6" class="node"><title>libs</title>
<ellipse fill="none" stroke="black" cx="371.694" cy="-314.87" rx="110.118" ry="26.7407"/>
<text text-anchor="middle" x="371.694" y="-318.67" font-family="Arial" font-size="14.00">Simulation kernel and</text>
<text text-anchor="middle" x="371.694" y="-303.67" font-family="Arial" font-size="14.00">user interface libraries</text>
</g>
<!-- libs&#45;&gt;linking -->
<g id="edge5" class="edge"><title>libs&#45;&gt;linking</title>
<path fill="none" stroke="black" d="M316.597,-291.585C288.892,-280.38 255.514,-266.879 228.309,-255.876"/>
<polygon fill="black" stroke="black" points="229.547,-252.601 218.964,-252.096 226.922,-259.091 229.547,-252.601"/>
</g>
<!-- prog -->
<g id="node7" class="node"><title>prog</title>
<ellipse fill="none" stroke="black" cx="176.694" cy="-162" rx="90.1842" ry="18"/>
<text text-anchor="middle" x="176.694" y="-158.3" font-family="Arial" font-size="14.00">Simulation program</text>
</g>
<!-- prog&#45;&gt;running -->
<g id="edge7" class="edge"><title>prog&#45;&gt;running</title>
<path fill="none" stroke="black" d="M212.153,-145.291C235.549,-134.925 266.355,-121.277 291.226,-110.258"/>
<polygon fill="black" stroke="black" points="292.714,-113.427 300.44,-106.176 289.879,-107.027 292.714,-113.427"/>
</g>
<!-- result -->
<g id="node8" class="node"><title>result</title>
<ellipse fill="none" stroke="black" cx="334.694" cy="-18" rx="56.59" ry="18"/>
<text text-anchor="middle" x="334.694" y="-14.3" font-family="Arial" font-size="14.00">Result files</text>
</g>
<!-- opp_msgc&#45;&gt;m_cc -->
<g id="edge2" class="edge"><title>opp_msgc&#45;&gt;m_cc</title>
<path fill="none" stroke="black" d="M184.524,-377.626C183.24,-367.498 181.585,-354.44 180.127,-342.942"/>
<polygon fill="black" stroke="black" points="183.59,-342.431 178.86,-332.95 176.646,-343.311 183.59,-342.431"/>
</g>
<!-- linking&#45;&gt;prog -->
<g id="edge6" class="edge"><title>linking&#45;&gt;prog</title>
<path fill="none" stroke="black" d="M176.694,-215.697C176.694,-207.983 176.694,-198.712 176.694,-190.112"/>
<polygon fill="black" stroke="black" points="180.194,-190.104 176.694,-180.104 173.194,-190.104 180.194,-190.104"/>
</g>
<!-- running&#45;&gt;result -->
<g id="edge10" class="edge"><title>running&#45;&gt;result</title>
<path fill="none" stroke="black" d="M334.694,-71.6966C334.694,-63.9827 334.694,-54.7125 334.694,-46.1124"/>
<polygon fill="black" stroke="black" points="338.194,-46.1043 334.694,-36.1043 331.194,-46.1044 338.194,-46.1043"/>
</g>
</g>
</svg>
