<?xml version="1.0" encoding="UTF-8" standalone="no"?>
<!DOCTYPE svg PUBLIC "-//W3C//DTD SVG 1.1//EN"
 "http://www.w3.org/Graphics/SVG/1.1/DTD/svg11.dtd">
<!-- Generated by graphviz version 2.38.0 (20140413.2041)
 -->
<!-- Title: g Pages: 1 -->
<svg width="468pt" height="84pt"
 viewBox="0.00 0.00 468.00 84.17" xmlns="http://www.w3.org/2000/svg" xmlns:xlink="http://www.w3.org/1999/xlink">
<g id="graph0" class="graph" transform="scale(0.725581 0.725581) rotate(0) translate(4 112)">
<title>g</title>
<polygon fill="white" stroke="none" points="-4,4 -4,-112 641,-112 641,4 -4,4"/>
<!-- cRandom -->
<g id="node1" class="node"><title>cRandom</title>
<polygon fill="none" stroke="black" points="387,-108 309,-108 309,-72 387,-72 387,-108"/>
<text text-anchor="middle" x="348" y="-86.3" font-family="Arial" font-size="14.00">cRandom</text>
</g>
<!-- cUniform -->
<g id="node2" class="node"><title>cUniform</title>
<polygon fill="none" stroke="black" points="74,-36 0,-36 0,-0 74,-0 74,-36"/>
<text text-anchor="middle" x="37" y="-14.3" font-family="Arial" font-size="14.00">cUniform</text>
</g>
<!-- cRandom&#45;&gt;cUniform -->
<g id="edge1" class="edge"><title>cRandom&#45;&gt;cUniform</title>
<path fill="none" stroke="black" d="M299.007,-81.5646C245.406,-72.8843 157.222,-56.9976 83,-36 80.1326,-35.1888 77.1895,-34.2817 74.2448,-33.32"/>
<polygon fill="black" stroke="black" points="298.5,-85.0278 308.927,-83.1526 299.606,-78.1158 298.5,-85.0278"/>
</g>
<!-- cExponential -->
<g id="node3" class="node"><title>cExponential</title>
<polygon fill="none" stroke="black" points="190,-36 92,-36 92,-0 190,-0 190,-36"/>
<text text-anchor="middle" x="141" y="-14.3" font-family="Arial" font-size="14.00">cExponential</text>
</g>
<!-- cRandom&#45;&gt;cExponential -->
<g id="edge2" class="edge"><title>cRandom&#45;&gt;cExponential</title>
<path fill="none" stroke="black" d="M298.738,-72.3415C265.912,-61.2408 222.94,-46.7092 190.139,-35.6171"/>
<polygon fill="black" stroke="black" points="297.983,-75.7808 308.578,-75.6688 300.226,-69.1497 297.983,-75.7808"/>
</g>
<!-- cNormal -->
<g id="node4" class="node"><title>cNormal</title>
<polygon fill="none" stroke="black" points="277.5,-36 208.5,-36 208.5,-0 277.5,-0 277.5,-36"/>
<text text-anchor="middle" x="243" y="-14.3" font-family="Arial" font-size="14.00">cNormal</text>
</g>
<!-- cRandom&#45;&gt;cNormal -->
<g id="edge3" class="edge"><title>cRandom&#45;&gt;cNormal</title>
<path fill="none" stroke="black" d="M313.968,-66.3119C299.289,-56.5258 282.402,-45.2681 268.785,-36.1898"/>
<polygon fill="black" stroke="black" points="312.052,-69.2412 322.314,-71.8761 315.935,-63.4168 312.052,-69.2412"/>
</g>
<!-- cTruncNormal -->
<g id="node5" class="node"><title>cTruncNormal</title>
<polygon fill="none" stroke="black" points="400.5,-36 295.5,-36 295.5,-0 400.5,-0 400.5,-36"/>
<text text-anchor="middle" x="348" y="-14.3" font-family="Arial" font-size="14.00">cTruncNormal</text>
</g>
<!-- cRandom&#45;&gt;cTruncNormal -->
<g id="edge4" class="edge"><title>cRandom&#45;&gt;cTruncNormal</title>
<path fill="none" stroke="black" d="M348,-61.6651C348,-53.0537 348,-43.7913 348,-36.1043"/>
<polygon fill="black" stroke="black" points="344.5,-61.6966 348,-71.6966 351.5,-61.6967 344.5,-61.6966"/>
</g>
<!-- cGamma -->
<g id="node6" class="node"><title>cGamma</title>
<polygon fill="none" stroke="black" points="493,-36 419,-36 419,-0 493,-0 493,-36"/>
<text text-anchor="middle" x="456" y="-14.3" font-family="Arial" font-size="14.00">cGamma</text>
</g>
<!-- cRandom&#45;&gt;cGamma -->
<g id="edge5" class="edge"><title>cRandom&#45;&gt;cGamma</title>
<path fill="none" stroke="black" d="M383.005,-66.3119C398.103,-56.5258 415.472,-45.2681 429.479,-36.1898"/>
<polygon fill="black" stroke="black" points="380.908,-63.5 374.42,-71.8761 384.715,-69.3741 380.908,-63.5"/>
</g>
<!-- cBeta -->
<g id="node7" class="node"><title>cBeta</title>
<polygon fill="none" stroke="black" points="565,-36 511,-36 511,-0 565,-0 565,-36"/>
<text text-anchor="middle" x="538" y="-14.3" font-family="Arial" font-size="14.00">cBeta</text>
</g>
<!-- cRandom&#45;&gt;cBeta -->
<g id="edge6" class="edge"><title>cRandom&#45;&gt;cBeta</title>
<path fill="none" stroke="black" d="M396.611,-73.785C427.175,-63.8476 467.259,-50.1314 502,-36 504.817,-34.8541 507.729,-33.6 510.621,-32.3086"/>
<polygon fill="black" stroke="black" points="395.483,-70.4714 387.042,-76.8744 397.633,-77.1329 395.483,-70.4714"/>
</g>
<!-- others -->
<g id="node8" class="node"><title>others</title>
<polygon fill="none" stroke="black" points="637,-36 583,-36 583,-0 637,-0 637,-36"/>
<text text-anchor="middle" x="610" y="-14.3" font-family="Arial" font-size="14.00">...</text>
</g>
<!-- cRandom&#45;&gt;others -->
<g id="edge7" class="edge"><title>cRandom&#45;&gt;others</title>
<path fill="none" stroke="black" d="M397.174,-80.5703C443.533,-71.9007 514.57,-56.7397 574,-36 576.871,-34.998 579.819,-33.8382 582.732,-32.6044"/>
<polygon fill="black" stroke="black" points="396.296,-77.1731 387.095,-82.4256 397.563,-84.0575 396.296,-77.1731"/>
</g>
</g>
</svg>
