<?xml version="1.0" encoding="UTF-8" standalone="no"?>
<!DOCTYPE svg PUBLIC "-//W3C//DTD SVG 1.1//EN"
 "http://www.w3.org/Graphics/SVG/1.1/DTD/svg11.dtd">
<!-- Generated by graphviz version 2.38.0 (20140413.2041)
 -->
<!-- Title: g Pages: 1 -->
<svg width="432pt" height="204pt"
 viewBox="0.00 0.00 432.00 203.68" xmlns="http://www.w3.org/2000/svg" xmlns:xlink="http://www.w3.org/1999/xlink">
<g id="graph0" class="graph" transform="scale(0.735319 0.735319) rotate(0) translate(4 273)">
<title>g</title>
<polygon fill="white" stroke="none" points="-4,4 -4,-273 583.5,-273 583.5,4 -4,4"/>
<!-- cStatistic -->
<g id="node1" class="node"><title>cStatistic</title>
<polygon fill="none" stroke="black" points="279.5,-269 205.5,-269 205.5,-233 279.5,-233 279.5,-269"/>
<text text-anchor="middle" x="242.5" y="-247.3" font-family="Arial" font-size="14.00">cStatistic</text>
</g>
<!-- cStdDev -->
<g id="node2" class="node"><title>cStdDev</title>
<polygon fill="none" stroke="black" points="278,-196 207,-196 207,-160 278,-160 278,-196"/>
<text text-anchor="middle" x="242.5" y="-174.3" font-family="Arial" font-size="14.00">cStdDev</text>
</g>
<!-- cStatistic&#45;&gt;cStdDev -->
<g id="edge1" class="edge"><title>cStatistic&#45;&gt;cStdDev</title>
<path fill="none" stroke="black" d="M242.5,-222.753C242.5,-213.765 242.5,-204.029 242.5,-196.029"/>
<polygon fill="black" stroke="black" points="239,-222.813 242.5,-232.813 246,-222.813 239,-222.813"/>
</g>
<!-- cWeightedStdDev -->
<g id="node3" class="node"><title>cWeightedStdDev</title>
<polygon fill="none" stroke="black" points="266,-123 133,-123 133,-87 266,-87 266,-123"/>
<text text-anchor="middle" x="199.5" y="-101.3" font-family="Arial" font-size="14.00">cWeightedStdDev</text>
</g>
<!-- cStdDev&#45;&gt;cWeightedStdDev -->
<g id="edge2" class="edge"><title>cStdDev&#45;&gt;cWeightedStdDev</title>
<path fill="none" stroke="black" d="M226.882,-151.212C221.199,-141.828 214.922,-131.464 209.813,-123.029"/>
<polygon fill="black" stroke="black" points="223.917,-153.072 232.091,-159.813 229.904,-149.446 223.917,-153.072"/>
</g>
<!-- cDensityEstBase -->
<g id="node4" class="node"><title>cDensityEstBase</title>
<polygon fill="none" stroke="black" points="409,-123 284,-123 284,-87 409,-87 409,-123"/>
<text text-anchor="middle" x="346.5" y="-101.3" font-family="Arial" font-size="14.00">cDensityEstBase</text>
</g>
<!-- cStdDev&#45;&gt;cDensityEstBase -->
<g id="edge3" class="edge"><title>cStdDev&#45;&gt;cDensityEstBase</title>
<path fill="none" stroke="black" d="M275.812,-154.258C290.612,-144.154 307.742,-132.46 321.432,-123.114"/>
<polygon fill="black" stroke="black" points="273.696,-151.465 267.411,-159.994 277.643,-157.246 273.696,-151.465"/>
</g>
<!-- cLongHistogram -->
<g id="node5" class="node"><title>cLongHistogram</title>
<polygon fill="none" stroke="black" points="121,-36 7.10543e-15,-36 7.10543e-15,-0 121,-0 121,-36"/>
<text text-anchor="middle" x="60.5" y="-14.3" font-family="Arial" font-size="14.00">cLongHistogram</text>
</g>
<!-- cDensityEstBase&#45;&gt;cLongHistogram -->
<g id="edge4" class="edge"><title>cDensityEstBase&#45;&gt;cLongHistogram</title>
<path fill="none" stroke="black" d="M279.088,-83.9649C230.084,-69.4008 164.46,-49.8971 117.94,-36.0714"/>
<polygon fill="black" stroke="black" points="278.385,-87.4073 288.968,-86.9012 280.379,-80.6973 278.385,-87.4073"/>
<text text-anchor="middle" x="227.5" y="-57.8" font-family="Arial" font-size="14.00">...</text>
</g>
<!-- cDoubleHistogram -->
<g id="node6" class="node"><title>cDoubleHistogram</title>
<polygon fill="none" stroke="black" points="273.5,-36 139.5,-36 139.5,-0 273.5,-0 273.5,-36"/>
<text text-anchor="middle" x="206.5" y="-14.3" font-family="Arial" font-size="14.00">cDoubleHistogram</text>
</g>
<!-- cDensityEstBase&#45;&gt;cDoubleHistogram -->
<g id="edge5" class="edge"><title>cDensityEstBase&#45;&gt;cDoubleHistogram</title>
<path fill="none" stroke="black" d="M309.54,-81.5599C286.127,-67.3452 256.316,-49.2454 234.789,-36.1754"/>
<polygon fill="black" stroke="black" points="307.805,-84.6009 318.169,-86.799 311.437,-78.6174 307.805,-84.6009"/>
<text text-anchor="middle" x="291.5" y="-57.8" font-family="Arial" font-size="14.00">...</text>
</g>
<!-- cVarHistogram -->
<g id="node7" class="node"><title>cVarHistogram</title>
<polygon fill="none" stroke="black" points="401.5,-36 291.5,-36 291.5,-0 401.5,-0 401.5,-36"/>
<text text-anchor="middle" x="346.5" y="-14.3" font-family="Arial" font-size="14.00">cVarHistogram</text>
</g>
<!-- cDensityEstBase&#45;&gt;cVarHistogram -->
<g id="edge6" class="edge"><title>cDensityEstBase&#45;&gt;cVarHistogram</title>
<path fill="none" stroke="black" d="M346.5,-76.7339C346.5,-63.4194 346.5,-47.806 346.5,-36.1754"/>
<polygon fill="black" stroke="black" points="343,-76.7989 346.5,-86.799 350,-76.799 343,-76.7989"/>
<text text-anchor="middle" x="352.5" y="-57.8" font-family="Arial" font-size="14.00">...</text>
</g>
<!-- cPSquare -->
<g id="node8" class="node"><title>cPSquare</title>
<polygon fill="none" stroke="black" points="499.5,-36 419.5,-36 419.5,-0 499.5,-0 499.5,-36"/>
<text text-anchor="middle" x="459.5" y="-14.3" font-family="Arial" font-size="14.00">cPSquare</text>
</g>
<!-- cDensityEstBase&#45;&gt;cPSquare -->
<g id="edge7" class="edge"><title>cDensityEstBase&#45;&gt;cPSquare</title>
<path fill="none" stroke="black" d="M377.588,-80.615C396.286,-66.5503 419.674,-48.9575 436.667,-36.1754"/>
<polygon fill="black" stroke="black" points="375.255,-77.9906 369.367,-86.799 379.463,-83.5847 375.255,-77.9906"/>
<text text-anchor="middle" x="416.5" y="-57.8" font-family="Arial" font-size="14.00">...</text>
</g>
<!-- cKSplit -->
<g id="node9" class="node"><title>cKSplit</title>
<polygon fill="none" stroke="black" points="579.5,-36 517.5,-36 517.5,-0 579.5,-0 579.5,-36"/>
<text text-anchor="middle" x="548.5" y="-14.3" font-family="Arial" font-size="14.00">cKSplit</text>
</g>
<!-- cDensityEstBase&#45;&gt;cKSplit -->
<g id="edge8" class="edge"><title>cDensityEstBase&#45;&gt;cKSplit</title>
<path fill="none" stroke="black" d="M397.044,-82.8519C429.012,-69.4596 471.195,-51.7568 508.5,-36 511.419,-34.7669 514.458,-33.4809 517.497,-32.1924"/>
<polygon fill="black" stroke="black" points="395.339,-79.7713 387.468,-86.8629 398.044,-86.2279 395.339,-79.7713"/>
<text text-anchor="middle" x="469.5" y="-57.8" font-family="Arial" font-size="14.00">...</text>
</g>
</g>
</svg>
