<?xml version="1.0" encoding="UTF-8" standalone="no"?>
<!DOCTYPE svg PUBLIC "-//W3C//DTD SVG 1.1//EN"
 "http://www.w3.org/Graphics/SVG/1.1/DTD/svg11.dtd">
<!-- Generated by graphviz version 2.38.0 (20140413.2041)
 -->
<!-- Title: g Pages: 1 -->
<svg width="562pt" height="269pt"
 viewBox="0.00 0.00 562.00 268.84" xmlns="http://www.w3.org/2000/svg" xmlns:xlink="http://www.w3.org/1999/xlink">
<g id="graph0" class="graph" transform="scale(0.824652 0.824652) rotate(0) translate(4 322)">
<title>g</title>
<polygon fill="white" stroke="none" points="-4,4 -4,-322 677.5,-322 677.5,4 -4,4"/>
<!-- cFigure -->
<g id="node1" class="node"><title>cFigure</title>
<polygon fill="none" stroke="black" points="134,-318 89,-318 89,-295 134,-295 134,-318"/>
<text text-anchor="middle" x="111.5" y="-304" font-family="Arial" font-size="10.00">cFigure</text>
</g>
<!-- cAbstractLineFigure -->
<g id="node2" class="node"><title>cAbstractLineFigure</title>
<polygon fill="none" stroke="black" points="161.5,-259 61.5,-259 61.5,-236 161.5,-236 161.5,-259"/>
<text text-anchor="middle" x="111.5" y="-245" font-family="Arial" font-size="10.00">cAbstractLineFigure</text>
</g>
<!-- cFigure&#45;&gt;cAbstractLineFigure -->
<g id="edge1" class="edge"><title>cFigure&#45;&gt;cAbstractLineFigure</title>
<path fill="none" stroke="black" d="M111.5,-284.632C111.5,-275.986 111.5,-266.327 111.5,-259.173"/>
<polygon fill="black" stroke="black" points="108,-284.779 111.5,-294.779 115,-284.779 108,-284.779"/>
</g>
<!-- cLineFigure -->
<g id="node3" class="node"><title>cLineFigure</title>
<polygon fill="none" stroke="black" points="63,-200 0,-200 0,-177 63,-177 63,-200"/>
<text text-anchor="middle" x="31.5" y="-186" font-family="Arial" font-size="10.00">cLineFigure</text>
</g>
<!-- cAbstractLineFigure&#45;&gt;cLineFigure -->
<g id="edge2" class="edge"><title>cAbstractLineFigure&#45;&gt;cLineFigure</title>
<path fill="none" stroke="black" d="M88.1385,-229.855C74.6925,-220.275 58.1943,-208.52 46.4799,-200.173"/>
<polygon fill="black" stroke="black" points="86.2774,-232.826 96.4526,-235.779 90.3394,-227.125 86.2774,-232.826"/>
</g>
<!-- cArcFigure -->
<g id="node4" class="node"><title>cArcFigure</title>
<polygon fill="none" stroke="black" points="141.5,-200 81.5,-200 81.5,-177 141.5,-177 141.5,-200"/>
<text text-anchor="middle" x="111.5" y="-186" font-family="Arial" font-size="10.00">cArcFigure</text>
</g>
<!-- cAbstractLineFigure&#45;&gt;cArcFigure -->
<g id="edge3" class="edge"><title>cAbstractLineFigure&#45;&gt;cArcFigure</title>
<path fill="none" stroke="black" d="M111.5,-225.632C111.5,-216.986 111.5,-207.327 111.5,-200.173"/>
<polygon fill="black" stroke="black" points="108,-225.779 111.5,-235.779 115,-225.779 108,-225.779"/>
</g>
<!-- cPolylineFigure -->
<g id="node5" class="node"><title>cPolylineFigure</title>
<polygon fill="none" stroke="black" points="238,-200 159,-200 159,-177 238,-177 238,-200"/>
<text text-anchor="middle" x="198.5" y="-186" font-family="Arial" font-size="10.00">cPolylineFigure</text>
</g>
<!-- cAbstractLineFigure&#45;&gt;cPolylineFigure -->
<g id="edge4" class="edge"><title>cAbstractLineFigure&#45;&gt;cPolylineFigure</title>
<path fill="none" stroke="black" d="M136.489,-230.128C151.186,-220.499 169.349,-208.599 182.209,-200.173"/>
<polygon fill="black" stroke="black" points="134.311,-227.371 127.864,-235.779 138.147,-233.226 134.311,-227.371"/>
</g>
<!-- cFigure2 -->
<g id="node6" class="node"><title>cFigure2</title>
<polygon fill="none" stroke="black" points="542,-318 497,-318 497,-295 542,-295 542,-318"/>
<text text-anchor="middle" x="519.5" y="-304" font-family="Arial" font-size="10.00">cFigure</text>
</g>
<!-- cAbstractTextFigure -->
<g id="node7" class="node"><title>cAbstractTextFigure</title>
<polygon fill="none" stroke="black" points="422.5,-259 322.5,-259 322.5,-236 422.5,-236 422.5,-259"/>
<text text-anchor="middle" x="372.5" y="-245" font-family="Arial" font-size="10.00">cAbstractTextFigure</text>
</g>
<!-- cFigure2&#45;&gt;cAbstractTextFigure -->
<g id="edge5" class="edge"><title>cFigure2&#45;&gt;cAbstractTextFigure</title>
<path fill="none" stroke="black" d="M487.355,-293.036C461.119,-282.863 424.462,-268.648 399.673,-259.036"/>
<polygon fill="black" stroke="black" points="486.264,-296.367 496.853,-296.719 488.795,-289.84 486.264,-296.367"/>
</g>
<!-- cAbstractImageFigure -->
<g id="node10" class="node"><title>cAbstractImageFigure</title>
<polygon fill="none" stroke="black" points="573.5,-259 465.5,-259 465.5,-236 573.5,-236 573.5,-259"/>
<text text-anchor="middle" x="519.5" y="-245" font-family="Arial" font-size="10.00">cAbstractImageFigure</text>
</g>
<!-- cFigure2&#45;&gt;cAbstractImageFigure -->
<g id="edge8" class="edge"><title>cFigure2&#45;&gt;cAbstractImageFigure</title>
<path fill="none" stroke="black" d="M519.5,-284.632C519.5,-275.986 519.5,-266.327 519.5,-259.173"/>
<polygon fill="black" stroke="black" points="516,-284.779 519.5,-294.779 523,-284.779 516,-284.779"/>
</g>
<!-- cGroupFigure -->
<g id="node14" class="node"><title>cGroupFigure</title>
<polygon fill="none" stroke="black" points="663,-259 592,-259 592,-236 663,-236 663,-259"/>
<text text-anchor="middle" x="627.5" y="-245" font-family="Arial" font-size="10.00">cGroupFigure</text>
</g>
<!-- cFigure2&#45;&gt;cGroupFigure -->
<g id="edge12" class="edge"><title>cFigure2&#45;&gt;cGroupFigure</title>
<path fill="none" stroke="black" d="M548.528,-290.18C567.201,-280.324 590.983,-267.773 607.547,-259.031"/>
<polygon fill="black" stroke="black" points="546.771,-287.149 539.561,-294.912 550.038,-293.34 546.771,-287.149"/>
</g>
<!-- cTextFigure -->
<g id="node8" class="node"><title>cTextFigure</title>
<polygon fill="none" stroke="black" points="320.5,-200 256.5,-200 256.5,-177 320.5,-177 320.5,-200"/>
<text text-anchor="middle" x="288.5" y="-186" font-family="Arial" font-size="10.00">cTextFigure</text>
</g>
<!-- cAbstractTextFigure&#45;&gt;cTextFigure -->
<g id="edge6" class="edge"><title>cAbstractTextFigure&#45;&gt;cTextFigure</title>
<path fill="none" stroke="black" d="M348.373,-230.128C334.183,-220.499 316.646,-208.599 304.229,-200.173"/>
<polygon fill="black" stroke="black" points="346.46,-233.06 356.7,-235.779 350.391,-227.268 346.46,-233.06"/>
</g>
<!-- cLabelFigure -->
<g id="node9" class="node"><title>cLabelFigure</title>
<polygon fill="none" stroke="black" points="406.5,-200 338.5,-200 338.5,-177 406.5,-177 406.5,-200"/>
<text text-anchor="middle" x="372.5" y="-186" font-family="Arial" font-size="10.00">cLabelFigure</text>
</g>
<!-- cAbstractTextFigure&#45;&gt;cLabelFigure -->
<g id="edge7" class="edge"><title>cAbstractTextFigure&#45;&gt;cLabelFigure</title>
<path fill="none" stroke="black" d="M372.5,-225.632C372.5,-216.986 372.5,-207.327 372.5,-200.173"/>
<polygon fill="black" stroke="black" points="369,-225.779 372.5,-235.779 376,-225.779 369,-225.779"/>
</g>
<!-- cFigure3 -->
<g id="node15" class="node"><title>cFigure3</title>
<polygon fill="none" stroke="black" points="395,-141 350,-141 350,-118 395,-118 395,-141"/>
<text text-anchor="middle" x="372.5" y="-127" font-family="Arial" font-size="10.00">cFigure</text>
</g>
<!-- cLabelFigure&#45;&gt;cFigure3 -->
<!-- cImageFigure -->
<g id="node11" class="node"><title>cImageFigure</title>
<polygon fill="none" stroke="black" points="496,-200 425,-200 425,-177 496,-177 496,-200"/>
<text text-anchor="middle" x="460.5" y="-186" font-family="Arial" font-size="10.00">cImageFigure</text>
</g>
<!-- cAbstractImageFigure&#45;&gt;cImageFigure -->
<g id="edge9" class="edge"><title>cAbstractImageFigure&#45;&gt;cImageFigure</title>
<path fill="none" stroke="black" d="M501.128,-228.751C491.433,-219.384 479.858,-208.202 471.548,-200.173"/>
<polygon fill="black" stroke="black" points="498.779,-231.348 508.403,-235.779 503.642,-226.313 498.779,-231.348"/>
</g>
<!-- cIconFigure -->
<g id="node12" class="node"><title>cIconFigure</title>
<polygon fill="none" stroke="black" points="577,-200 514,-200 514,-177 577,-177 577,-200"/>
<text text-anchor="middle" x="545.5" y="-186" font-family="Arial" font-size="10.00">cIconFigure</text>
</g>
<!-- cAbstractImageFigure&#45;&gt;cIconFigure -->
<g id="edge10" class="edge"><title>cAbstractImageFigure&#45;&gt;cIconFigure</title>
<path fill="none" stroke="black" d="M528.626,-226.493C532.668,-217.632 537.259,-207.566 540.632,-200.173"/>
<polygon fill="black" stroke="black" points="525.356,-225.228 524.39,-235.779 531.725,-228.133 525.356,-225.228"/>
</g>
<!-- cPixmapFigure -->
<g id="node13" class="node"><title>cPixmapFigure</title>
<polygon fill="none" stroke="black" points="673.5,-200 595.5,-200 595.5,-177 673.5,-177 673.5,-200"/>
<text text-anchor="middle" x="634.5" y="-186" font-family="Arial" font-size="10.00">cPixmapFigure</text>
</g>
<!-- cAbstractImageFigure&#45;&gt;cPixmapFigure -->
<g id="edge11" class="edge"><title>cAbstractImageFigure&#45;&gt;cPixmapFigure</title>
<path fill="none" stroke="black" d="M549.866,-231.449C569.83,-221.554 595.455,-208.853 613.253,-200.031"/>
<polygon fill="black" stroke="black" points="548.267,-228.335 540.861,-235.912 551.375,-234.607 548.267,-228.335"/>
</g>
<!-- cAbstractShapeFigure -->
<g id="node16" class="node"><title>cAbstractShapeFigure</title>
<polygon fill="none" stroke="black" points="427,-82 318,-82 318,-59 427,-59 427,-82"/>
<text text-anchor="middle" x="372.5" y="-68" font-family="Arial" font-size="10.00">cAbstractShapeFigure</text>
</g>
<!-- cFigure3&#45;&gt;cAbstractShapeFigure -->
<g id="edge13" class="edge"><title>cFigure3&#45;&gt;cAbstractShapeFigure</title>
<path fill="none" stroke="black" d="M372.5,-107.632C372.5,-98.9857 372.5,-89.3273 372.5,-82.1732"/>
<polygon fill="black" stroke="black" points="369,-107.779 372.5,-117.779 376,-107.779 369,-107.779"/>
</g>
<!-- cRectangleFigure -->
<g id="node17" class="node"><title>cRectangleFigure</title>
<polygon fill="none" stroke="black" points="195.5,-23 107.5,-23 107.5,-0 195.5,-0 195.5,-23"/>
<text text-anchor="middle" x="151.5" y="-9" font-family="Arial" font-size="10.00">cRectangleFigure</text>
</g>
<!-- cAbstractShapeFigure&#45;&gt;cRectangleFigure -->
<g id="edge14" class="edge"><title>cAbstractShapeFigure&#45;&gt;cRectangleFigure</title>
<path fill="none" stroke="black" d="M321.811,-56.4263C282.581,-46.3082 228.956,-32.4773 192.428,-23.0562"/>
<polygon fill="black" stroke="black" points="321.15,-59.8705 331.708,-58.9789 322.899,-53.0923 321.15,-59.8705"/>
</g>
<!-- cOvalFigure -->
<g id="node18" class="node"><title>cOvalFigure</title>
<polygon fill="none" stroke="black" points="277.5,-23 213.5,-23 213.5,-0 277.5,-0 277.5,-23"/>
<text text-anchor="middle" x="245.5" y="-9" font-family="Arial" font-size="10.00">cOvalFigure</text>
</g>
<!-- cAbstractShapeFigure&#45;&gt;cOvalFigure -->
<g id="edge15" class="edge"><title>cAbstractShapeFigure&#45;&gt;cOvalFigure</title>
<path fill="none" stroke="black" d="M339.562,-54.7168C317.431,-44.7841 288.797,-31.9326 268.964,-23.031"/>
<polygon fill="black" stroke="black" points="338.353,-58.0107 348.91,-58.9123 341.22,-51.6244 338.353,-58.0107"/>
</g>
<!-- cRingFigure -->
<g id="node19" class="node"><title>cRingFigure</title>
<polygon fill="none" stroke="black" points="359.5,-23 295.5,-23 295.5,-0 359.5,-0 359.5,-23"/>
<text text-anchor="middle" x="327.5" y="-9" font-family="Arial" font-size="10.00">cRingFigure</text>
</g>
<!-- cAbstractShapeFigure&#45;&gt;cRingFigure -->
<g id="edge16" class="edge"><title>cAbstractShapeFigure&#45;&gt;cRingFigure</title>
<path fill="none" stroke="black" d="M357.825,-50.9115C350.57,-41.7225 342.076,-30.9633 335.926,-23.1732"/>
<polygon fill="black" stroke="black" points="355.092,-53.0987 364.036,-58.7787 360.586,-48.7611 355.092,-53.0987"/>
</g>
<!-- cPieSliceFigure -->
<g id="node20" class="node"><title>cPieSliceFigure</title>
<polygon fill="none" stroke="black" points="459,-23 378,-23 378,-0 459,-0 459,-23"/>
<text text-anchor="middle" x="418.5" y="-9" font-family="Arial" font-size="10.00">cPieSliceFigure</text>
</g>
<!-- cAbstractShapeFigure&#45;&gt;cPieSliceFigure -->
<g id="edge17" class="edge"><title>cAbstractShapeFigure&#45;&gt;cPieSliceFigure</title>
<path fill="none" stroke="black" d="M387.501,-50.9115C394.917,-41.7225 403.6,-30.9633 409.887,-23.1732"/>
<polygon fill="black" stroke="black" points="384.709,-48.7987 381.152,-58.7787 390.156,-53.1948 384.709,-48.7987"/>
</g>
<!-- cPolygonFigure -->
<g id="node21" class="node"><title>cPolygonFigure</title>
<polygon fill="none" stroke="black" points="557.5,-23 477.5,-23 477.5,-0 557.5,-0 557.5,-23"/>
<text text-anchor="middle" x="517.5" y="-9" font-family="Arial" font-size="10.00">cPolygonFigure</text>
</g>
<!-- cAbstractShapeFigure&#45;&gt;cPolygonFigure -->
<g id="edge18" class="edge"><title>cAbstractShapeFigure&#45;&gt;cPolygonFigure</title>
<path fill="none" stroke="black" d="M408.754,-55.2484C434.198,-45.2464 467.66,-32.0923 490.711,-23.031"/>
<polygon fill="black" stroke="black" points="407.46,-51.9964 399.434,-58.9123 410.021,-58.5111 407.46,-51.9964"/>
</g>
<!-- cPathFigure -->
<g id="node22" class="node"><title>cPathFigure</title>
<polygon fill="none" stroke="black" points="641,-23 576,-23 576,-0 641,-0 641,-23"/>
<text text-anchor="middle" x="608.5" y="-9" font-family="Arial" font-size="10.00">cPathFigure</text>
</g>
<!-- cAbstractShapeFigure&#45;&gt;cPathFigure -->
<g id="edge19" class="edge"><title>cAbstractShapeFigure&#45;&gt;cPathFigure</title>
<path fill="none" stroke="black" d="M427.28,-56.5197C466.157,-47.2712 519.56,-34.4926 566.5,-23 569.566,-22.2493 572.757,-21.4623 575.948,-20.6711"/>
<polygon fill="black" stroke="black" points="426.14,-53.1931 417.221,-58.9111 427.759,-60.0033 426.14,-53.1931"/>
</g>
</g>
</svg>
