<?xml version="1.0" encoding="UTF-8" standalone="no"?>
<!DOCTYPE svg PUBLIC "-//W3C//DTD SVG 1.1//EN"
 "http://www.w3.org/Graphics/SVG/1.1/DTD/svg11.dtd">
<!-- Generated by graphviz version 2.38.0 (20140413.2041)
 -->
<!-- Title: g Pages: 1 -->
<svg width="174pt" height="260pt"
 viewBox="0.00 0.00 174.09 260.00" xmlns="http://www.w3.org/2000/svg" xmlns:xlink="http://www.w3.org/1999/xlink">
<g id="graph0" class="graph" transform="scale(1 1) rotate(0) translate(4 256)">
<title>g</title>
<polygon fill="white" stroke="none" points="-4,4 -4,-256 170.093,-256 170.093,4 -4,4"/>
<!-- node1 -->
<g id="node1" class="node"><title>node1</title>
<ellipse fill="none" stroke="black" cx="83.0467" cy="-234" rx="37.0935" ry="18"/>
<text text-anchor="middle" x="83.0467" y="-230.3" font-family="Arial" font-size="14.00">node1</text>
</g>
<!-- node2 -->
<g id="node2" class="node"><title>node2</title>
<ellipse fill="none" stroke="black" cx="37.0467" cy="-162" rx="37.0935" ry="18"/>
<text text-anchor="middle" x="37.0467" y="-158.3" font-family="Arial" font-size="14.00">node2</text>
</g>
<!-- node1&#45;&#45;node2 -->
<g id="edge1" class="edge"><title>node1&#45;&#45;node2</title>
<path fill="none" stroke="black" d="M72.1454,-216.411C64.8126,-205.252 55.1862,-190.604 47.8698,-179.47"/>
</g>
<!-- node3 -->
<g id="node5" class="node"><title>node3</title>
<ellipse fill="none" stroke="black" cx="129.047" cy="-162" rx="37.0935" ry="18"/>
<text text-anchor="middle" x="129.047" y="-158.3" font-family="Arial" font-size="14.00">node3</text>
</g>
<!-- node1&#45;&#45;node3 -->
<g id="edge4" class="edge"><title>node1&#45;&#45;node3</title>
<path fill="none" stroke="black" d="M93.9481,-216.411C101.281,-205.252 110.907,-190.604 118.224,-179.47"/>
</g>
<!-- node4 -->
<g id="node3" class="node"><title>node4</title>
<ellipse fill="none" stroke="black" cx="37.0467" cy="-90" rx="37.0935" ry="18"/>
<text text-anchor="middle" x="37.0467" y="-86.3" font-family="Arial" font-size="14.00">node4</text>
</g>
<!-- node2&#45;&#45;node4 -->
<g id="edge2" class="edge"><title>node2&#45;&#45;node4</title>
<path fill="none" stroke="black" d="M37.0467,-143.697C37.0467,-132.846 37.0467,-118.917 37.0467,-108.104"/>
</g>
<!-- node5 -->
<g id="node6" class="node"><title>node5</title>
<ellipse fill="none" stroke="black" cx="129.047" cy="-90" rx="37.0935" ry="18"/>
<text text-anchor="middle" x="129.047" y="-86.3" font-family="Arial" font-size="14.00">node5</text>
</g>
<!-- node2&#45;&#45;node5 -->
<g id="edge7" class="edge"><title>node2&#45;&#45;node5</title>
<path fill="none" stroke="black" d="M56.1092,-146.496C71.8986,-134.482 94.2259,-117.494 110.009,-105.485"/>
</g>
<!-- node6 -->
<g id="node4" class="node"><title>node6</title>
<ellipse fill="none" stroke="black" cx="83.0467" cy="-18" rx="37.0935" ry="18"/>
<text text-anchor="middle" x="83.0467" y="-14.3" font-family="Arial" font-size="14.00">node6</text>
</g>
<!-- node4&#45;&#45;node6 -->
<g id="edge3" class="edge"><title>node4&#45;&#45;node6</title>
<path fill="none" stroke="black" d="M47.9481,-72.411C55.2808,-61.2524 64.9072,-46.6036 72.2236,-35.4699"/>
</g>
<!-- node3&#45;&#45;node4 -->
<g id="edge8" class="edge"><title>node3&#45;&#45;node4</title>
<path fill="none" stroke="black" d="M109.984,-146.496C94.1948,-134.482 71.8675,-117.494 56.0848,-105.485"/>
</g>
<!-- node3&#45;&#45;node5 -->
<g id="edge5" class="edge"><title>node3&#45;&#45;node5</title>
<path fill="none" stroke="black" d="M129.047,-143.697C129.047,-132.846 129.047,-118.917 129.047,-108.104"/>
</g>
<!-- node5&#45;&#45;node6 -->
<g id="edge6" class="edge"><title>node5&#45;&#45;node6</title>
<path fill="none" stroke="black" d="M118.145,-72.411C110.813,-61.2524 101.186,-46.6036 93.8698,-35.4699"/>
</g>
</g>
</svg>
